<svg width="36" height="40" viewBox="0 0 36 40" fill="none" xmlns="http://www.w3.org/2000/svg">
<path d="M10.5434 34.0449C9.88851 34.2632 9.53456 34.9711 9.75287 35.626C9.97118 36.281 10.6791 36.6349 11.334 36.4166L10.5434 34.0449ZM21.3233 35.9231L21.2099 34.6782L21.3233 35.9231ZM27.5541 34.5385L28.1023 35.6618L27.5541 34.5385ZM33.5077 29.1225L32.5364 28.3358V28.3358L33.5077 29.1225ZM29.4358 25.7337L30.3197 26.6176H30.3197L29.4358 25.7337ZM26.6938 28.4757L27.5777 29.3596L26.6938 28.4757ZM19.2464 28.4423C18.5561 28.4423 17.9964 29.0019 17.9964 29.6923C17.9964 30.3827 18.5561 30.9423 19.2464 30.9423V28.4423ZM32.8747 25.3932L32.1813 26.4333L32.8747 25.3932ZM13.0461 24.4848L13.6051 25.6028L13.6051 25.6028L13.0461 24.4848ZM20.4987 23.8031L20.8276 22.5971L20.4987 23.8031ZM23.409 24.5968L23.0801 25.8027L23.409 24.5968ZM24.3311 28.0691L23.4472 27.1852L24.3311 28.0691ZM21.8241 28.8084C21.3359 29.2966 21.3359 30.088 21.8241 30.5762C22.3122 31.0643 23.1037 31.0643 23.5918 30.5762L21.8241 28.8084ZM11.334 36.4166C11.6098 36.3247 12.097 36.2835 12.8618 36.3381C13.6011 36.3908 14.4582 36.5197 15.4178 36.6704C17.2636 36.9603 19.5167 37.3428 21.4367 37.1679L21.2099 34.6782C19.6685 34.8187 17.7677 34.5089 15.8058 34.2007C14.8616 34.0524 13.9014 33.9058 13.0397 33.8444C12.2035 33.7848 11.3061 33.7907 10.5434 34.0449L11.334 36.4166ZM21.4367 37.1679C22.7349 37.0497 23.7847 36.9973 24.7618 36.8204C25.8022 36.6321 26.7833 36.3055 28.1023 35.6618L27.0059 33.4151C25.847 33.9806 25.0856 34.2212 24.3166 34.3604C23.4842 34.511 22.6576 34.5463 21.2099 34.6782L21.4367 37.1679ZM28.1023 35.6618C29.3513 35.0523 30.5741 34.0591 31.6433 33.0317C32.7245 31.9928 33.7095 30.8595 34.4791 29.9092L32.5364 28.3358C31.8058 29.2379 30.8924 30.2862 29.9111 31.229C28.9178 32.1834 27.9139 32.972 27.0059 33.4151L28.1023 35.6618ZM28.5519 24.8498L25.8099 27.5918L27.5777 29.3596L30.3197 26.6176L28.5519 24.8498ZM23.7566 28.4423H19.2464V30.9423H23.7566V28.4423ZM25.8099 27.5918C25.2654 28.1364 24.5268 28.4423 23.7566 28.4423V30.9423C25.1898 30.9423 26.5643 30.373 27.5777 29.3596L25.8099 27.5918ZM33.568 24.3531C31.9913 23.302 29.8918 23.5099 28.5519 24.8498L30.3197 26.6176C30.817 26.1203 31.5961 26.0431 32.1813 26.4333L33.568 24.3531ZM34.4791 29.9092C35.9339 28.113 35.3946 25.5708 33.568 24.3531L32.1813 26.4333C32.8806 26.8995 32.9922 27.7729 32.5364 28.3358L34.4791 29.9092ZM3.32334 24.0192H8.8618V21.5192H3.32334V24.0192ZM8.99641 24.1538V36.6154H11.4964V24.1538H8.99641ZM8.8618 36.75H3.32334V39.25H8.8618V36.75ZM3.18872 36.6154V24.1538H0.688721V36.6154H3.18872ZM3.32334 36.75C3.24899 36.75 3.18872 36.6897 3.18872 36.6154H0.688721C0.688721 38.0704 1.86828 39.25 3.32334 39.25V36.75ZM8.99641 36.6154C8.99641 36.6897 8.93615 36.75 8.8618 36.75V39.25C10.3169 39.25 11.4964 38.0704 11.4964 36.6154H8.99641ZM8.8618 24.0192C8.93614 24.0192 8.99641 24.0795 8.99641 24.1538H11.4964C11.4964 22.6988 10.3169 21.5192 8.8618 21.5192V24.0192ZM3.32334 21.5192C1.86828 21.5192 0.688721 22.6988 0.688721 24.1538H3.18872C3.18872 24.0795 3.24899 24.0192 3.32334 24.0192V21.5192ZM11.4977 26.6565L13.6051 25.6028L12.4871 23.3667L10.3797 24.4204L11.4977 26.6565ZM17.3806 24.7115H17.9484V22.2115H17.3806V24.7115ZM20.1698 25.009L23.0801 25.8027L23.7379 23.3908L20.8276 22.5971L20.1698 25.009ZM23.4472 27.1852L21.8241 28.8084L23.5918 30.5762L25.215 28.953L23.4472 27.1852ZM23.0801 25.8027C23.6927 25.9698 23.8962 26.7363 23.4472 27.1852L25.215 28.953C27.0213 27.1467 26.2024 24.063 23.7379 23.3908L23.0801 25.8027ZM17.9484 24.7115C18.6988 24.7115 19.4458 24.8116 20.1698 25.009L20.8276 22.5971C19.8892 22.3412 18.921 22.2115 17.9484 22.2115V24.7115ZM13.6051 25.6028C14.7774 25.0167 16.07 24.7115 17.3806 24.7115V22.2115C15.6819 22.2115 14.0065 22.607 12.4871 23.3667L13.6051 25.6028ZM26.9964 13.0769C26.9964 15.4454 25.0764 17.3654 22.708 17.3654V19.8654C26.4571 19.8654 29.4964 16.8261 29.4964 13.0769H26.9964ZM22.708 17.3654C20.3395 17.3654 18.4195 15.4454 18.4195 13.0769H15.9195C15.9195 16.8261 18.9588 19.8654 22.708 19.8654V17.3654ZM18.4195 13.0769C18.4195 10.7085 20.3395 8.78846 22.708 8.78846V6.28846C18.9588 6.28846 15.9195 9.32776 15.9195 13.0769H18.4195ZM22.708 8.78846C25.0764 8.78846 26.9964 10.7085 26.9964 13.0769H29.4964C29.4964 9.32776 26.4571 6.28846 22.708 6.28846V8.78846ZM17.1695 11.8269C14.801 11.8269 12.881 9.90691 12.881 7.53846H10.381C10.381 11.2876 13.4203 14.3269 17.1695 14.3269V11.8269ZM12.881 7.53846C12.881 5.17001 14.801 3.25 17.1695 3.25V0.75C13.4203 0.75 10.381 3.7893 10.381 7.53846H12.881ZM17.1695 3.25C19.5379 3.25 21.458 5.17001 21.458 7.53846H23.958C23.958 3.7893 20.9187 0.75 17.1695 0.75V3.25Z" fill="#0EC243"/>
</svg>
