<svg width="32" height="32" viewBox="0 0 32 32" fill="none" xmlns="http://www.w3.org/2000/svg">
<path d="M28.7999 25.9556C28.7999 27.5265 27.5439 28.8 25.9945 28.8L6.00543 28.8C4.45601 28.8 3.19995 27.5265 3.19995 25.9555L3.19995 21.6889C3.19995 20.1179 4.45601 18.8444 6.00543 18.8444L25.9945 18.8444C27.5439 18.8444 28.7999 20.1179 28.7999 21.6889V25.9556Z" stroke="#1B1B1B" stroke-width="1.6" stroke-linecap="round" stroke-linejoin="round"/>
<path d="M28.7999 6.04444C28.7999 4.4735 27.5439 3.2 25.9945 3.2L6.00543 3.2C4.45601 3.2 3.19995 4.4735 3.19995 6.04444L3.19995 10.3111C3.19995 11.882 4.45601 13.1555 6.00543 13.1555H25.9945C27.5439 13.1555 28.7999 11.882 28.7999 10.3111V6.04444Z" stroke="#1B1B1B" stroke-width="1.6" stroke-linecap="round" stroke-linejoin="round"/>
</svg>
